<svg xmlns="http://www.w3.org/2000/svg" viewBox="0 0 32 32" fill="none">
  <!-- Background circle -->
  <rect width="32" height="32" rx="8" fill="#2563eb"/>
  <!-- Stethoscope shape -->
  <!-- Earpiece arms -->
  <path d="M9 8 C9 8 9 6 11 6 C13 6 13 8 13 8 L13 12" stroke="white" stroke-width="2" stroke-linecap="round" fill="none"/>
  <path d="M19 8 C19 8 19 6 21 6 C23 6 23 8 23 8 L23 12" stroke="white" stroke-width="2" stroke-linecap="round" fill="none"/>
  <!-- Tube connecting arms -->
  <path d="M9 12 C9 16 10 17 13 17 L19 17 C22 17 23 16 23 12" stroke="white" stroke-width="2" stroke-linecap="round" fill="none"/>
  <!-- Vertical tube -->
  <path d="M16 17 L16 23" stroke="white" stroke-width="2" stroke-linecap="round"/>
  <!-- Chest piece (circle) -->
  <circle cx="16" cy="26" r="2.5" fill="white"/>
  <circle cx="16" cy="26" r="1" fill="#2563eb"/>
</svg>
